<svg xmlns="http://www.w3.org/2000/svg" height="884pt" version="1.1" viewBox="-162 0 884 884.99775" width="884pt">
<g id="surface1">
<path d="M 148 884.996094 L 192.25 884.996094 L 192.25 855.496094 L 168.460938 855.496094 L 178.25 826.113281 C 197.101562 769.5 258.273438 738.886719 314.894531 757.738281 C 347.1875 768.484375 372.527344 793.820312 383.277344 826.113281 L 393.042969 855.496094 L 369.253906 855.496094 L 369.253906 884.996094 L 561.003906 884.996094 L 561.003906 855.496094 L 540.347656 855.496094 L 438.085938 663.75 L 457.753906 663.75 L 457.753906 634.25 L 423.828125 634.25 L 375.550781 501.5 L 398.753906 501.5 L 398.753906 472 L 367.453125 472 L 327.050781 162.25 L 354.496094 162.25 L 354.496094 132.75 L 325.007812 132.75 L 325.007812 88.5 C 325.007812 80.351562 318.398438 73.746094 310.25 73.746094 L 295.496094 73.746094 L 295.496094 0 L 266.007812 0 L 266.007812 73.746094 L 251.25 73.746094 C 243.101562 73.746094 236.496094 80.351562 236.496094 88.5 L 236.496094 132.75 L 207 132.75 L 207 162.25 L 234.453125 162.25 L 194.050781 472 L 162.75 472 L 162.75 501.5 L 185.9375 501.5 L 137.671875 634.25 L 103.753906 634.25 L 103.753906 663.75 L 123.414062 663.75 L 21.148438 855.496094 L 0.5 855.496094 L 0.5 884.996094 Z M 266.007812 103.246094 L 295.496094 103.246094 L 295.496094 132.75 L 266.007812 132.75 Z M 264.203125 162.25 L 297.300781 162.25 L 337.699219 472 L 223.796875 472 Z M 217.324219 501.5 L 344.175781 501.5 L 392.433594 634.25 L 350.871094 634.25 L 324.425781 541.691406 C 322.617188 535.363281 316.828125 531.007812 310.25 531 L 251.25 531 C 244.671875 531.007812 238.890625 535.363281 237.078125 541.691406 L 210.628906 634.25 L 169.058594 634.25 Z M 320.1875 634.25 L 241.3125 634.25 L 262.367188 560.5 L 299.128906 560.5 Z M 156.851562 663.75 L 404.652344 663.75 L 506.914062 855.496094 L 424.132812 855.496094 L 411.230469 816.785156 C 387.195312 744.722656 309.296875 705.789062 237.230469 729.816406 C 196.179688 743.511719 163.964844 775.726562 150.273438 816.785156 L 137.367188 855.496094 L 54.589844 855.496094 Z M 156.851562 663.75 " style=" stroke:none;fill-rule:nonzero;fill:rgb(0%,0%,0%);fill-opacity:1;" />
</g>
</svg>