<svg height="682pt" viewBox="-124 -21 682 682.66861" width="682pt" xmlns="http://www.w3.org/2000/svg"><path d="m383.691406 278.476562c-4.710937-7.058593-12.039062-11.957031-20.363281-13.609374-8.324219-1.65625-16.972656.0625-24.027344 4.777343l-13.800781 9.21875c-.875-8.265625-1.453125-13.027343-1.503906-13.332031-2.882813-17.152344-14.601563-39.628906-53.183594-52.351562v-36.351563c13.964844-12.332031 21.769531-30.203125 21.332031-48.828125 0-.179688 0-.363281 0-.542969v-.277343c-.050781-6.773438-.980469-13.511719-2.746093-20.054688l22.609374-37.628906c2.355469-3.925782 1.945313-8.914063-1.023437-12.398438-2.96875-3.488281-7.832031-4.6875-12.085937-2.988281l-33.894532 13.558594c-3.621094-3.136719-7.585937-5.839844-11.820312-8.078125l-14.769532-51.835938c-1.304687-4.589844-5.492187-7.753906-10.261718-7.753906-4.769532 0-8.960938 3.164062-10.257813 7.753906l-14.777343 51.835938c-4.207032 2.222656-8.140626 4.921875-11.730469 8.050781l-33.910157-13.542969c-4.253906-1.699218-9.113281-.492187-12.078124 2.992188-2.96875 3.492187-3.378907 8.480468-1.015626 12.40625l22.609376 37.628906c-1.769532 6.53125-2.695313 13.253906-2.753907 20.015625v.859375c-.433593 18.625 7.375 36.496094 21.332031 48.828125v15.425781c-.042968 5.765625-4.628906 10.46875-10.382812 10.667969l-7.320312.261719c-1.703126.078125-2.953126.128906-3.628907.128906-35.066406 0-59.960937-38.597656-70.222656-57.925781 11.175781-5.921875 17.765625-17.914063 16.785156-30.527344-.980469-12.609375-9.351562-23.433594-21.308593-27.558594v-23.296875h21.332031c5.894531 0 10.667969-4.773437 10.667969-10.664062s-4.773438-10.667969-10.667969-10.667969h-12.445313c-6.847656-21.519531-31.730468-38.71875-34.964844-40.871094-2.957031-1.972656-6.707031-2.335937-9.992187-.980469-17.363281 8.242188-30.429687 23.445313-35.953125 41.851563h-13.300781c-5.894531 0-10.667969 4.777344-10.667969 10.667969s4.773438 10.664062 10.667969 10.664062h21.332031v23.296875c-13.628906 4.773438-22.347656 18.113281-21.25 32.511719s11.738281 26.261719 25.929688 28.914062c8.128906 11.984376 32.882812 51.730469 27.464843 84.164063-5.828125 30.636719 1.507813 62.316406 20.214844 87.269531l.402344.511719c5.542969 7.398437 11.636719 14.363281 18.226562 20.839844 2.066407 1.964843 4.015625 4.046875 5.835938 6.238281 2.121093 2.949219 3.804687 6.183594 5.015625 9.597656-15.550782 10.148438-28.511719 21.835938-28.511719 37.304688-.878906 19.945312 12.988281 37.527344 32.597656 41.320312-.140625 2.503906-.25 4.863282-.386719 7.464844-1.304687 23.464844-2.761718 49.949219-2.027343 78.445312.417969 18.105469 1.84375 36.175782 4.269531 54.121094h-2.457031c-23.5625 0-42.664063 19.101563-42.664063 42.667969 0 11.78125 9.550782 21.328125 21.332032 21.328125h255.984374c11.78125 0 21.332032-9.546875 21.332032-21.328125-.0625-22.4375-17.511719-40.976563-39.898438-42.390625 7.503906-46.410156 10.363282-93.453125 8.527344-140.425781l79.367188-53.125c14.691406-9.820313 18.640624-29.683594 8.832031-44.375zm-253.453125 229.808594c-.074219-22.78125 1.0625-44.359375 2.132813-63.695312.363281-6.589844.703125-12.9375.992187-19.09375 4.789063-10.269532 19.808594-30.84375 62.789063-30.84375 42.164062 0 83.289062-36.425782 111.757812-75.195313.46875 5.535157.9375 11.378907 1.421875 17.8125 1.957031 26.171875 3.921875 59.058594 4.683594 93.144531.15625 7.285157.242187 14.324219.289063 21.253907-11.40625-9.488281-22.160157-21.988281-22.160157-35.683594.320313-6.253906-1.164062-12.472656-4.265625-17.910156-3.375-5.414063-9.320312-8.6875-15.699218-8.636719-22.472657 0-54.691407 40.753906-54.691407 69.210938 0 15.738281-50.414062 40.039062-87.25 49.636718zm55.464844-377.242187c3.65625-4.179688 14.8125-13.707031 42.449219-13.707031 27.839844 0 38.953125 9.664062 42.398437 13.660156-.222656 10.933594-4.851562 21.308594-12.835937 28.777344-7.984375 7.472656-18.640625 11.398437-29.5625 10.894531-10.914063.503906-21.570313-3.417969-29.550782-10.878907-7.980468-7.460937-12.617187-17.824218-12.84375-28.746093zm4.089844-41.035157c4.109375 1.640626 8.800781.582032 11.800781-2.664062 4-4.429688 8.917969-7.929688 14.410156-10.257812 3.042969-1.238282 5.347656-3.800782 6.25-6.957032l5.898438-20.523437 5.84375 20.523437c.902344 3.15625 3.207031 5.71875 6.25 6.957032 5.546875 2.375 10.515625 5.917968 14.570312 10.382812 3.011719 3.195312 7.664063 4.214844 11.730469 2.582031l10.75-4.265625-8.6875 14.488282c-.523437 1-.886719 2.078124-1.066406 3.195312-12.453125-5.253906-25.882813-7.796875-39.390625-7.464844-13.507813-.355468-26.933594 2.164063-39.386719 7.394532-.1875-1.121094-.546875-2.199219-1.070313-3.203126l-8.746093-14.554687zm-121.632813-4.671874h-21.328125v-21.332032h21.328125zm-11.632812-62.167969c7.15625 5.472656 13.398437 12.058593 18.46875 19.503906h-34.503906c3.441406-7.855469 8.988281-14.605469 16.035156-19.503906zm-20.367188 83.5h42.667969c5.890625 0 10.664063 4.773437 10.664063 10.667969 0 5.886718-4.773438 10.664062-10.664063 10.664062h-42.667969c-5.886718 0-10.660156-4.777344-10.660156-10.664062 0-5.894532 4.773438-10.667969 10.660156-10.667969zm19.59375 42.667969h16.234375c11.183594 24.082031 28.082031 45.058593 49.226563 61.113281-1.898438 24.097656-8.941406 61.050781-32.710938 86.8125-10.378906-18.460938-13.859375-40.007813-9.824218-60.796875 5.320312-31.882813-11.085938-66.867188-22.925782-87.128906zm45.28125 165.734374c27.570313-27.535156 37.332032-66.199218 40.53125-94.230468 7.269532 2.488281 14.898438 3.773437 22.589844 3.792968.839844 0 2.378906 0 4.492188-.136718l7.097656-.269532c17.339844-.433593 31.148437-14.652343 31.074218-31.992187v-3.554687c13.878907 4.394531 28.78125 4.394531 42.664063 0v32.433593c0 .25.125.460938.140625.707031.066406.722657.214844 1.4375.433594 2.132813.152344.632813.367187 1.25.628906 1.84375.324219.589844.703125 1.144531 1.132812 1.664063.386719.554687.835938 1.074218 1.335938 1.539062.496094.410156 1.035156.765625 1.605469 1.0625.621093.402344 1.273437.726562 1.960937.980469l.207032.109375c-23.304688 17.386718-48.15625 39.707031-59.664063 62.707031-9.078125 18.257813-37.097656 33.617187-61.867187 47.171875-3.199219 1.75-6.34375 3.488281-9.429688 5.207031-1.765625-4.011719-3.980469-7.808593-6.609375-11.320312-2.371094-2.921875-4.921875-5.707031-7.625-8.328125-3.214844-3.261719-6.925781-7.089844-10.699219-11.519532zm-.875 79.582032c0-5.441406 8.53125-13.355469 25.296875-23.464844 6.292969-3.753906 13.171875-7.464844 20.269531-11.390625 27.460938-15.0625 58.597657-32.136719 70.664063-56.359375 9.074219-18.132812 31.804687-40.375 64.085937-62.929688 11.449219 5.332032 19.742188 15.714844 22.402344 28.058594 0 0 .765625 6.292969 1.886719 17.070313-26.433594 44.132812-69.671875 87.683593-108.613281 87.683593-53.179688 0-74.019532 26.878907-81.484375 41.726563-9.257813-2.21875-15.453125-10.929687-14.507813-20.394531zm30.546875 135.453125c33.449219-8.25 108.113281-35.195313 108.113281-71.457031 0-17.824219 21.851563-43.925782 31.597657-47.472657.289062 1.585938.421875 3.195313.394531 4.808594 0 27.046875 22.519531 48.304687 43.382812 62.203125-.054687 32.800781-3.070312 65.527344-9.023437 97.785156h-170.324219c-2.171875-15.207031-3.554687-30.515625-4.140625-45.867187zm214.769531 88.53125h-255.984374c0-11.78125 9.550781-21.332031 21.332031-21.332031h213.320312c11.78125 0 21.332031 9.550781 21.332031 21.332031zm57.511719-253.644531-68.179687 45.582031c-.179688-5.269531-.390625-10.46875-.613282-15.605469l-.054687-1.207031c-.226563-5.03125-.46875-10.003907-.726563-14.867188v-.753906c-.234374-4.375-.480468-8.636719-.738281-12.796875l-.234375-2.691406c-.238281-4.019532-.492187-7.929688-.757812-11.734375-.09375-1.332031-.179688-2.601563-.273438-3.898438-.195312-2.839843-.394531-5.613281-.589844-8.320312-.136718-1.800781-.265624-3.566407-.390624-5.335938-.195313-2.433593-.375-4.785156-.554688-7.089843-.128906-1.59375-.253906-3.148438-.378906-4.671876-.21875-2.667968-.433594-5.25-.648438-7.703124-.117187-1.386719-.222656-2.652344-.339844-3.976563-.148437-1.710937-.300781-3.359375-.445312-4.953125l-.171875-2.015625 23.261719-15.535156c4.894531-3.277344 11.519531-1.957031 14.792968 2.9375l39.988282 59.878906c3.246094 4.890625 1.933594 11.480469-2.933594 14.757813zm0 0"/></svg>